<?xml version="1.0" standalone="no"?>
<!DOCTYPE svg PUBLIC "-//W3C//DTD SVG 20010904//EN"
 "http://www.w3.org/TR/2001/REC-SVG-20010904/DTD/svg10.dtd">
<svg version="1.0" xmlns="http://www.w3.org/2000/svg"
 width="4000.000000pt" height="1750.000000pt" viewBox="0 0 4000.000000 1750.000000"
 preserveAspectRatio="xMidYMid meet">

<g transform="translate(0.000000,1750.000000) scale(0.100000,-0.100000)"
fill="#000000" stroke="none">
<path d="M23630 11200 c0 -5 -9 -10 -20 -10 -11 0 -20 -4 -20 -10 0 -5 -15
-10 -32 -10 -25 0 -29 -3 -18 -10 12 -8 11 -10 -7 -10 -13 0 -23 -4 -23 -10 0
-5 -13 -10 -30 -10 -16 0 -30 -4 -30 -10 0 -5 -9 -10 -20 -10 -11 0 -20 -4
-20 -10 0 -5 -9 -10 -20 -10 -11 0 -20 -4 -20 -10 0 -5 -9 -10 -20 -10 -11 0
-20 -4 -20 -10 0 -5 -9 -10 -20 -10 -11 0 -20 -4 -20 -10 0 -5 -9 -10 -20 -10
-11 0 -20 -4 -20 -10 0 -5 -13 -10 -30 -10 -16 0 -30 -4 -30 -10 0 -5 -9 -10
-20 -10 -11 0 -20 -4 -20 -10 0 -5 -9 -10 -20 -10 -11 0 -20 -4 -20 -10 0 -5
-9 -10 -20 -10 -11 0 -20 -4 -20 -10 0 -5 -9 -10 -20 -10 -11 0 -20 -4 -20
-10 0 -5 -9 -10 -20 -10 -11 0 -20 -4 -20 -10 0 -5 -9 -10 -20 -10 -11 0 -20
-4 -20 -10 0 -5 -9 -10 -20 -10 -11 0 -20 -4 -20 -10 0 -5 -13 -10 -30 -10
-16 0 -30 -4 -30 -10 0 -5 -9 -10 -20 -10 -11 0 -20 -4 -20 -10 0 -5 -9 -10
-20 -10 -11 0 -20 -4 -20 -10 0 -5 -9 -10 -20 -10 -11 0 -20 -4 -20 -10 0 -5
-9 -10 -20 -10 -11 0 -20 -4 -20 -10 0 -5 -9 -10 -20 -10 -11 0 -20 -4 -20
-10 0 -5 -9 -10 -20 -10 -11 0 -20 -6 -20 -12 0 -9 -4 -8 -10 2 -6 10 -10 11
-10 3 0 -7 -9 -13 -20 -13 -11 0 -20 -4 -20 -10 0 -5 -9 -10 -20 -10 -11 0
-20 -4 -20 -10 0 -5 -9 -10 -20 -10 -11 0 -20 -4 -20 -10 0 -5 -9 -10 -20 -10
-11 0 -20 -4 -20 -10 0 -5 -9 -10 -20 -10 -11 0 -20 -4 -20 -10 0 -5 -9 -10
-20 -10 -11 0 -20 -4 -20 -10 0 -5 -9 -10 -20 -10 -11 0 -20 -4 -20 -10 0 -5
-13 -10 -30 -10 -16 0 -30 -4 -30 -10 0 -5 -9 -10 -20 -10 -11 0 -20 -4 -20
-10 0 -5 -9 -10 -20 -10 -11 0 -20 -4 -20 -10 0 -5 -9 -10 -20 -10 -11 0 -20
-4 -20 -10 0 -5 -9 -10 -20 -10 -11 0 -20 -4 -20 -10 0 -5 -9 -10 -20 -10 -11
0 -20 -4 -20 -10 0 -5 -13 -10 -30 -10 -16 0 -30 -4 -30 -10 0 -5 -9 -10 -20
-10 -11 0 -20 -4 -20 -10 0 -5 -9 -10 -20 -10 -11 0 -20 -4 -20 -10 0 -5 -13
-10 -30 -10 -16 0 -30 -4 -30 -10 0 -5 -9 -10 -20 -10 -11 0 -20 -4 -20 -10 0
-5 -9 -10 -20 -10 -11 0 -20 -4 -20 -10 0 -5 -9 -10 -20 -10 -11 0 -20 -4 -20
-10 0 -5 -13 -10 -30 -10 -16 0 -30 -4 -30 -10 0 -5 -9 -10 -20 -10 -11 0 -20
-4 -20 -10 0 -5 -9 -10 -20 -10 -11 0 -20 -4 -20 -10 0 -5 -13 -10 -30 -10
-16 0 -30 -4 -30 -10 0 -5 -9 -10 -20 -10 -11 0 -20 -4 -20 -10 0 -5 -9 -10
-20 -10 -11 0 -20 -4 -20 -10 0 -5 -13 -10 -30 -10 -16 0 -30 -4 -30 -10 0 -5
-7 -10 -16 -10 -43 0 -44 -12 -44 -364 0 -326 1 -336 19 -336 11 0 23 -4 26
-10 3 -5 17 -10 31 -10 14 0 22 -4 19 -10 -4 -6 5 -10 19 -10 14 0 26 -4 26
-10 0 -5 9 -10 20 -10 11 0 20 -4 20 -10 0 -5 9 -10 20 -10 11 0 20 -4 20 -10
0 -5 9 -10 20 -10 11 0 20 -4 20 -10 0 -5 9 -10 20 -10 11 0 20 -4 20 -10 0
-5 9 -10 20 -10 11 0 20 -4 20 -10 0 -5 9 -10 20 -10 11 0 20 -4 20 -10 0 -5
14 -10 30 -10 17 0 30 -4 30 -10 0 -5 9 -10 20 -10 11 0 20 -4 20 -10 0 -5 9
-10 20 -10 11 0 20 -4 20 -10 0 -5 9 -10 20 -10 11 0 20 -4 20 -10 0 -5 9 -10
20 -10 11 0 20 -4 20 -10 0 -5 9 -10 20 -10 11 0 20 -4 20 -10 0 -5 9 -10 20
-10 11 0 20 -5 20 -10 0 -6 3 -9 8 -9 18 3 32 -2 32 -11 0 -5 -9 -10 -20 -10
-11 0 -20 -4 -20 -10 0 -5 -9 -10 -20 -10 -11 0 -20 -4 -20 -10 0 -5 -9 -10
-20 -10 -11 0 -20 -4 -20 -10 0 -5 -13 -10 -30 -10 -16 0 -30 -4 -30 -10 0 -5
-9 -10 -20 -10 -11 0 -20 -4 -20 -10 0 -5 -9 -10 -20 -10 -11 0 -20 -4 -20
-10 0 -5 -13 -10 -30 -10 -16 0 -30 -4 -30 -10 0 -5 -9 -10 -20 -10 -11 0 -20
-4 -20 -10 0 -5 -9 -10 -20 -10 -11 0 -20 -4 -20 -10 0 -5 -13 -10 -30 -10
-16 0 -30 -4 -30 -10 0 -5 -9 -10 -20 -10 -11 0 -20 -4 -20 -10 0 -5 -9 -10
-20 -10 -11 0 -20 -4 -20 -10 0 -5 -13 -10 -30 -10 -16 0 -30 -4 -30 -10 0 -5
-9 -10 -20 -10 -11 0 -20 -4 -20 -10 0 -5 -9 -10 -20 -10 -11 0 -20 -4 -20
-10 0 -5 -9 -10 -20 -10 -20 0 -20 -7 -20 -340 l0 -340 30 0 c17 0 30 -4 30
-10 0 -5 9 -10 20 -10 11 0 20 -4 20 -10 0 -5 9 -10 20 -10 11 0 20 -4 20 -10
0 -5 9 -10 20 -10 11 0 20 -4 20 -10 0 -5 9 -10 20 -10 11 0 20 -4 20 -10 0
-5 9 -10 20 -10 11 0 20 -4 20 -10 0 -5 9 -10 20 -10 11 0 20 -4 20 -10 0 -5
14 -10 30 -10 17 0 30 -4 30 -10 0 -5 9 -10 20 -10 11 0 20 -4 20 -10 0 -5 9
-10 20 -10 11 0 20 -4 20 -10 0 -5 9 -10 20 -10 11 0 20 -4 20 -10 0 -5 9 -10
20 -10 11 0 20 -4 20 -10 0 -5 9 -10 20 -10 11 0 20 -4 20 -10 0 -5 9 -10 20
-10 11 0 20 -4 20 -10 0 -5 14 -10 30 -10 17 0 30 -4 30 -10 0 -5 9 -10 20
-10 11 0 20 -4 20 -10 0 -5 9 -10 20 -10 11 0 20 -4 20 -10 0 -5 9 -10 20 -10
11 0 20 -4 20 -10 0 -5 9 -10 20 -10 11 0 20 -4 20 -10 0 -5 9 -10 20 -10 11
0 20 -4 20 -10 0 -5 9 -10 20 -10 11 0 20 -4 20 -10 0 -5 9 -10 20 -10 11 0
20 -4 20 -10 0 -5 9 -10 20 -10 11 0 20 -4 20 -10 0 -5 14 -10 30 -10 17 0 30
-4 30 -10 0 -5 9 -10 20 -10 11 0 20 -4 20 -10 0 -5 9 -10 20 -10 11 0 20 -4
20 -10 0 -5 9 -10 20 -10 11 0 20 -4 20 -10 0 -5 9 -10 20 -10 11 0 20 -4 20
-10 0 -5 9 -10 20 -10 11 0 20 -4 20 -10 0 -5 9 -10 20 -10 11 0 20 -4 20 -10
0 -5 14 -10 30 -10 17 0 30 -4 30 -10 0 -5 9 -10 20 -10 11 0 20 -4 20 -10 0
-5 9 -10 20 -10 11 0 20 -4 20 -10 0 -5 9 -10 20 -10 11 0 20 -4 20 -10 0 -5
9 -10 20 -10 11 0 20 -4 20 -10 0 -5 9 -10 20 -10 11 0 20 -4 20 -10 0 -5 9
-10 20 -10 11 0 20 -4 20 -10 0 -5 9 -10 20 -10 11 0 20 -4 20 -10 0 -5 14
-10 30 -10 17 0 30 -4 30 -10 0 -5 9 -10 20 -10 11 0 20 -4 20 -10 0 -5 9 -10
20 -10 11 0 20 -4 20 -10 0 -5 9 -10 20 -10 11 0 20 -4 20 -10 0 -5 9 -10 20
-10 11 0 20 -4 20 -10 0 -5 9 -10 20 -10 11 0 20 -4 20 -10 0 -5 9 -10 20 -10
11 0 20 -4 20 -10 0 -5 14 -10 30 -10 17 0 30 -4 30 -10 0 -5 9 -10 20 -10 11
0 20 -4 20 -10 0 -5 9 -10 20 -10 11 0 20 -4 20 -10 0 -5 9 -10 20 -10 11 0
20 -4 20 -10 0 -5 9 -10 20 -10 11 0 20 -4 20 -10 0 -5 9 -10 20 -10 11 0 20
-4 20 -10 0 -5 9 -10 20 -10 11 0 20 -4 20 -10 0 -5 14 -10 30 -10 17 0 30 -4
30 -10 0 -5 9 -10 20 -10 20 0 20 7 20 330 0 323 0 330 -20 330 -11 0 -20 5
-20 10 0 6 -9 10 -20 10 -11 0 -20 5 -20 10 0 6 -9 10 -20 10 -11 0 -20 5 -20
10 0 6 -9 10 -20 10 -11 0 -20 5 -20 10 0 6 -9 10 -20 10 -11 0 -20 5 -20 10
0 6 -9 10 -20 10 -11 0 -20 5 -20 10 0 6 -9 10 -20 10 -11 0 -20 5 -20 10 0 6
-13 10 -30 10 -16 0 -30 5 -30 10 0 6 -9 10 -20 10 -11 0 -20 5 -20 10 0 6 -9
10 -20 10 -11 0 -20 5 -20 10 0 6 -9 10 -20 10 -11 0 -20 5 -20 10 0 6 -9 10
-20 10 -11 0 -20 5 -20 10 0 6 -6 10 -13 10 -18 0 -67 24 -67 33 0 4 -13 7
-30 7 -16 0 -30 5 -30 10 0 6 -9 10 -20 10 -11 0 -20 5 -20 10 0 6 -9 10 -20
10 -11 0 -20 5 -20 10 0 6 -9 10 -20 10 -11 0 -20 5 -20 10 0 6 -9 10 -20 10
-11 0 -20 5 -20 10 0 6 -9 10 -20 10 -11 0 -20 5 -20 10 0 6 -9 10 -19 10 -11
0 -23 5 -26 10 -3 6 -17 10 -31 10 -13 0 -24 5 -24 10 0 6 -9 10 -20 10 -11 0
-20 5 -20 10 0 6 -9 10 -20 10 -11 0 -20 5 -20 10 0 6 -9 10 -20 10 -11 0 -20
5 -20 10 0 6 -9 10 -19 10 -11 0 -21 4 -23 10 -1 5 -15 11 -30 12 -16 1 -28 6
-28 10 0 4 -9 8 -20 8 -11 0 -20 5 -20 10 0 6 -9 10 -20 10 -11 0 -20 5 -20
10 0 6 -9 10 -20 10 -11 0 -20 5 -20 10 0 6 -9 10 -20 10 -11 0 -20 5 -20 10
0 6 -9 10 -20 10 -11 0 -20 5 -20 10 0 6 -9 10 -20 10 -11 0 -20 5 -20 10 0 6
-9 10 -20 10 -11 0 -20 5 -20 10 0 6 -13 10 -30 10 -16 0 -30 5 -30 10 0 6 -9
10 -20 10 -11 0 -20 5 -20 10 0 6 -9 10 -20 10 -11 0 -20 5 -20 10 0 6 -9 10
-20 10 -13 0 -20 7 -20 20 0 16 7 20 30 20 17 0 30 5 30 10 0 6 9 10 20 10 11
0 20 5 20 10 0 6 14 10 30 10 17 0 30 5 30 10 0 6 14 10 30 10 17 0 30 5 30
10 0 6 9 10 20 10 11 0 20 5 20 10 0 6 14 10 30 10 17 0 30 5 30 10 0 6 9 10
19 10 11 0 23 5 26 10 3 6 17 10 31 10 13 0 24 5 24 10 0 6 14 10 30 10 17 0
30 5 30 10 0 6 14 10 30 10 17 0 30 5 30 10 0 6 9 10 20 10 11 0 20 5 20 10 0
6 14 10 30 10 17 0 30 5 30 10 0 6 14 10 30 10 17 0 30 5 30 10 0 6 9 10 19
10 11 0 22 6 25 13 5 10 7 10 12 0 3 -7 14 -13 25 -13 10 0 19 -4 19 -10 0 -5
9 -10 20 -10 11 0 20 -4 20 -10 0 -5 9 -10 20 -10 11 0 20 -4 20 -10 0 -5 9
-10 20 -10 11 0 20 -4 20 -10 0 -5 14 -10 30 -10 17 0 30 -4 30 -10 0 -5 9
-10 20 -10 11 0 20 -4 20 -10 0 -5 9 -10 20 -10 11 0 20 -4 20 -10 0 -5 9 -10
20 -10 11 0 20 -4 20 -10 0 -5 9 -10 20 -10 11 0 20 -4 20 -10 0 -5 9 -10 20
-10 11 0 20 -4 20 -10 0 -5 9 -10 20 -10 11 0 20 -4 20 -10 0 -5 14 -10 30
-10 17 0 30 -4 30 -10 0 -5 9 -10 20 -10 11 0 20 -4 20 -10 0 -5 9 -10 20 -10
11 0 20 -4 20 -10 0 -5 9 -10 20 -10 11 0 20 -4 20 -10 0 -5 9 -10 20 -10 11
0 20 -4 20 -10 0 -5 9 -10 20 -10 11 0 20 -4 20 -10 0 -5 9 -10 20 -10 11 0
20 -4 20 -10 0 -5 14 -10 30 -10 17 0 30 -4 30 -10 0 -5 9 -10 20 -10 20 0 20
7 20 330 0 323 0 330 -20 330 -11 0 -20 5 -20 10 0 6 -9 10 -20 10 -11 0 -20
5 -20 10 0 6 -9 10 -20 10 -11 0 -20 5 -20 10 0 6 -9 10 -20 10 -11 0 -20 5
-20 10 0 6 -9 10 -20 10 -11 0 -20 5 -20 10 0 6 -9 10 -20 10 -11 0 -20 5 -20
10 0 6 -13 10 -30 10 -16 0 -30 5 -30 10 0 6 -9 10 -20 10 -11 0 -20 5 -20 10
0 6 -9 10 -20 10 -11 0 -20 5 -20 10 0 6 -9 10 -20 10 -11 0 -20 5 -20 10 0 6
-9 10 -20 10 -11 0 -20 5 -20 10 0 6 -9 10 -20 10 -11 0 -20 5 -20 10 0 6 -9
10 -20 10 -11 0 -20 5 -20 10 0 6 -9 10 -20 10 -11 0 -20 5 -20 10 0 6 -13 10
-30 10 -16 0 -30 5 -30 10 0 6 -9 10 -20 10 -11 0 -20 5 -20 10 0 6 -9 10 -20
10 -11 0 -20 5 -20 10 0 6 -9 10 -20 10 -11 0 -20 5 -20 10 0 6 -9 10 -20 10
-11 0 -20 5 -20 10 0 6 -9 10 -20 10 -11 0 -20 5 -20 10 0 6 -9 10 -20 10 -11
0 -20 5 -20 10 0 6 -13 10 -30 10 -16 0 -30 5 -30 10 0 6 -9 10 -20 10 -11 0
-20 5 -20 10 0 6 -9 10 -20 10 -11 0 -20 5 -20 10 0 6 -9 10 -20 10 -11 0 -20
5 -20 10 0 6 -9 10 -20 10 -11 0 -20 5 -20 10 0 6 -9 10 -20 10 -11 0 -20 5
-20 10 0 6 -9 10 -20 10 -11 0 -20 5 -20 10 0 6 -13 10 -30 10 -16 0 -30 5
-30 10 0 6 -9 10 -20 10 -11 0 -20 5 -20 10 0 6 -9 10 -20 10 -11 0 -20 5 -20
10 0 6 -9 10 -20 10 -11 0 -20 5 -20 10 0 6 -9 10 -20 10 -11 0 -20 5 -20 10
0 6 -9 10 -20 10 -11 0 -20 5 -20 10 0 6 -3 9 -7 9 -23 -4 -43 2 -38 11 4 6
-7 10 -24 10 -17 0 -31 5 -31 10 0 6 -9 10 -20 10 -11 0 -20 5 -20 10 0 6 -7
10 -16 10 -15 0 -44 23 -44 34 0 3 9 6 20 6 11 0 20 5 20 10 0 6 9 10 20 10
11 0 20 5 20 10 0 6 14 10 30 10 17 0 30 5 30 10 0 6 9 10 20 10 11 0 20 5 20
10 0 6 9 10 20 10 11 0 20 5 20 10 0 6 9 10 20 10 11 0 20 5 20 10 0 6 9 10
20 10 11 0 20 5 20 10 0 6 9 10 20 10 11 0 20 5 20 10 0 6 9 10 20 10 11 0 20
5 20 10 0 6 9 10 20 10 11 0 20 5 20 10 0 6 14 10 30 10 17 0 30 5 30 10 0 6
9 10 20 10 11 0 20 5 20 10 0 6 9 10 20 10 11 0 20 5 20 10 0 6 9 10 20 10 11
0 20 5 20 10 0 6 9 10 20 10 11 0 20 5 20 10 0 6 9 10 20 10 11 0 20 5 20 10
0 6 9 10 20 10 11 0 20 5 20 10 0 6 9 10 20 10 11 0 20 5 20 10 0 6 13 10 28
10 16 0 34 8 42 20 8 12 26 20 42 20 15 0 28 5 28 10 0 6 9 10 20 10 11 0 20
5 20 10 0 6 9 10 20 10 11 0 20 5 20 10 0 6 9 10 20 10 11 0 20 5 20 10 0 6 9
10 20 10 11 0 20 5 20 10 0 6 9 10 20 10 11 0 20 5 20 10 0 6 9 10 20 10 11 0
20 5 20 10 0 6 9 10 20 10 11 0 20 5 20 10 0 6 14 10 30 10 17 0 30 5 30 10 0
6 9 10 20 10 11 0 20 5 20 10 0 6 9 10 20 10 11 0 20 5 20 10 0 6 9 10 20 10
11 0 20 5 20 10 0 6 9 10 20 10 11 0 20 5 20 10 0 6 9 10 20 10 11 0 20 5 20
10 0 6 9 10 20 10 11 0 20 5 20 10 0 6 9 10 20 10 11 0 20 5 20 10 0 6 14 10
30 10 17 0 30 5 30 10 0 6 7 10 16 10 42 0 44 14 44 324 0 191 -4 296 -10 296
-5 0 -10 -4 -10 -10z"/>
<path d="M30530 10780 c0 -5 -18 -10 -40 -10 -22 0 -40 -4 -40 -10 0 -5 -9
-10 -20 -10 -16 0 -20 -7 -20 -30 0 -16 5 -30 10 -30 6 0 10 -9 10 -20 0 -11
5 -20 10 -20 6 0 10 -13 10 -30 l0 -30 -420 0 -420 0 0 -460 c0 -300 -3 -460
-10 -460 -6 0 -10 -53 -10 -140 0 -87 -4 -140 -10 -140 -6 0 -10 -30 -10 -70
0 -40 -4 -70 -10 -70 -5 0 -10 -22 -10 -50 0 -27 -4 -50 -10 -50 -5 0 -10 -22
-10 -50 0 -27 -4 -50 -10 -50 -5 0 -10 -13 -10 -30 0 -16 -4 -30 -10 -30 -5 0
-10 -13 -10 -30 0 -16 -4 -30 -10 -30 -5 0 -10 -9 -10 -20 0 -11 -4 -20 -10
-20 -5 0 -10 -13 -10 -30 0 -16 -4 -30 -10 -30 -5 0 -10 -8 -10 -18 0 -10 -9
-24 -20 -32 -11 -8 -20 -20 -20 -28 0 -17 25 -42 42 -42 8 0 20 -9 28 -20 8
-11 21 -20 30 -20 9 0 22 -9 30 -20 8 -11 22 -20 32 -20 11 0 18 7 18 20 0 11
5 20 10 20 6 0 10 9 10 20 0 11 5 20 10 20 6 0 10 9 10 20 0 11 5 20 10 20 6
0 10 14 10 30 0 17 5 30 10 30 6 0 10 14 10 30 0 17 5 30 10 30 6 0 10 14 10
30 0 17 5 30 10 30 6 0 10 14 10 30 0 17 5 30 10 30 6 0 10 18 10 40 0 22 5
40 10 40 6 0 10 23 10 50 0 28 5 50 10 50 6 0 10 27 10 60 0 33 4 60 10 60 6
0 10 33 10 80 0 47 4 80 10 80 6 0 10 30 10 70 l0 70 840 0 840 0 0 300 0 300
-280 0 -280 0 0 100 0 100 310 0 310 0 0 100 0 100 -416 0 c-437 0 -444 1
-444 44 0 9 -4 16 -10 16 -5 0 -10 9 -10 20 0 11 -4 20 -10 20 -5 0 -10 14
-10 30 0 17 -4 30 -10 30 -5 0 -10 9 -10 20 0 17 -7 20 -40 20 -22 0 -40 -4
-40 -10z m-380 -490 l0 -100 -180 0 -180 0 0 100 0 100 180 0 180 0 0 -100z
m560 0 l0 -100 -190 0 -190 0 0 100 0 100 190 0 190 0 0 -100z m-560 -410 l0
-130 -180 0 -180 0 0 130 0 130 180 0 180 0 0 -130z m560 0 l0 -130 -190 0
-190 0 0 130 0 130 190 0 190 0 0 -130z m560 0 l0 -130 -180 0 -180 0 0 130 0
130 180 0 180 0 0 -130z"/>
<path d="M32290 10710 l0 -80 -190 0 -190 0 0 -120 0 -120 -80 0 -80 0 0 -80
0 -80 80 0 80 0 0 -130 0 -130 190 0 190 0 0 -40 0 -40 -220 0 -220 0 0 -200
0 -200 160 0 160 0 0 -30 c0 -16 -4 -30 -10 -30 -5 0 -10 -7 -10 -16 0 -40
-21 -44 -214 -44 l-186 0 0 -80 0 -80 140 0 c87 0 140 -4 140 -10 0 -5 -4 -10
-10 -10 -5 0 -10 -8 -10 -18 0 -10 -9 -24 -20 -32 -11 -8 -20 -21 -20 -28 0
-8 -13 -27 -30 -42 -16 -15 -30 -33 -30 -40 0 -20 27 -40 54 -40 14 0 26 -4
26 -10 0 -5 14 -10 30 -10 17 0 30 -4 30 -10 0 -5 14 -10 30 -10 17 0 30 -4
30 -10 0 -5 12 -10 26 -10 23 0 54 -20 54 -34 0 -3 -9 -6 -20 -6 -11 0 -20 -4
-20 -10 0 -5 -9 -10 -20 -10 -11 0 -20 -4 -20 -10 0 -5 -13 -10 -30 -10 -16 0
-30 -4 -30 -10 0 -5 -18 -10 -40 -10 -22 0 -40 -4 -40 -10 0 -5 -13 -10 -30
-10 -16 0 -30 -4 -30 -10 0 -5 -22 -10 -50 -10 -27 0 -50 -4 -50 -10 0 -5 -18
-10 -40 -10 -32 0 -40 -4 -40 -18 0 -10 9 -24 20 -32 11 -8 20 -22 20 -32 0
-10 5 -18 10 -18 6 0 10 -9 10 -20 0 -18 7 -20 60 -20 33 0 60 4 60 10 0 6 18
10 40 10 22 0 40 5 40 10 0 6 14 10 30 10 17 0 30 5 30 10 0 6 14 10 30 10 17
0 30 5 30 10 0 6 14 10 30 10 17 0 30 5 30 10 0 6 14 10 30 10 17 0 30 5 30
10 0 6 14 10 30 10 17 0 30 5 30 10 0 6 9 10 20 10 11 0 20 5 20 10 0 6 9 10
20 10 11 0 20 5 20 10 0 6 23 10 50 10 28 0 50 -4 50 -10 0 -5 9 -10 20 -10
11 0 20 -4 20 -10 0 -5 9 -10 20 -10 11 0 20 -4 20 -10 0 -5 9 -10 20 -10 11
0 20 -4 20 -10 0 -5 9 -10 20 -10 11 0 20 -4 20 -10 0 -5 9 -10 20 -10 11 0
20 -4 20 -10 0 -5 14 -10 30 -10 17 0 30 5 30 10 0 6 14 10 30 10 22 0 30 -5
30 -18 0 -10 9 -24 20 -32 11 -8 20 -22 20 -32 0 -10 5 -18 10 -18 6 0 10 5
10 10 0 6 9 10 20 10 11 0 20 5 20 10 0 6 9 10 20 10 11 0 20 5 20 10 0 6 8
10 18 10 10 0 24 9 32 20 8 11 21 20 28 20 8 0 27 14 42 30 15 17 33 30 39 30
14 0 241 226 241 240 0 11 45 60 55 60 3 0 5 -9 5 -20 0 -11 5 -20 10 -20 6 0
10 -8 10 -18 0 -10 9 -24 20 -32 11 -8 20 -21 20 -28 0 -8 14 -27 30 -42 17
-15 30 -33 30 -39 0 -16 167 -181 183 -181 7 0 19 -9 27 -20 8 -11 22 -20 32
-20 10 0 18 -4 18 -10 0 -5 9 -10 20 -10 11 0 20 7 20 16 0 8 23 37 50 64 28
27 50 54 50 60 0 16 -26 40 -42 40 -8 0 -20 9 -28 20 -8 11 -20 20 -27 20 -16
0 -203 185 -203 201 0 6 -13 24 -30 39 -16 15 -30 35 -30 44 0 9 -4 16 -10 16
-5 0 -10 8 -10 18 0 10 -9 24 -20 32 -14 10 -20 26 -20 52 0 21 5 38 10 38 6
0 10 9 10 20 0 11 5 20 10 20 6 0 10 14 10 30 0 17 5 30 10 30 6 0 10 14 10
30 0 17 5 30 10 30 6 0 10 14 10 30 0 17 5 30 10 30 6 0 10 14 10 30 0 17 5
30 10 30 6 0 10 14 10 30 0 17 5 30 10 30 6 0 10 18 10 40 0 22 5 40 10 40 6
0 10 23 10 50 0 28 5 50 10 50 6 0 10 23 10 50 0 28 5 50 10 50 6 0 10 27 10
60 0 33 4 60 10 60 6 0 10 23 10 50 l0 50 90 0 90 0 0 100 0 100 -300 0 c-193
0 -300 4 -300 10 0 6 5 10 10 10 6 0 10 18 10 40 0 22 5 40 10 40 6 0 10 18
10 40 0 22 5 40 10 40 6 0 10 23 10 50 0 28 5 50 10 50 6 0 10 18 10 40 0 22
5 40 10 40 6 0 10 14 10 30 0 27 -3 30 -30 30 -16 0 -30 5 -30 10 0 6 -22 10
-50 10 -27 0 -50 5 -50 10 0 6 -4 10 -10 10 -5 0 -10 -18 -10 -40 0 -22 -4
-40 -10 -40 -5 0 -10 -22 -10 -50 0 -27 -4 -50 -10 -50 -5 0 -10 -22 -10 -50
0 -27 -4 -50 -10 -50 -5 0 -10 -18 -10 -40 0 -22 -4 -40 -10 -40 -5 0 -10 -18
-10 -40 0 -22 -4 -40 -10 -40 -5 0 -10 -13 -10 -30 0 -16 -4 -30 -10 -30 -5 0
-10 -18 -10 -40 0 -22 -4 -40 -10 -40 -5 0 -10 -13 -10 -30 0 -16 -4 -30 -10
-30 -5 0 -10 -9 -10 -20 0 -11 -4 -20 -10 -20 -5 0 -10 -13 -10 -30 0 -16 -4
-30 -10 -30 -5 0 -10 -13 -10 -30 0 -16 -4 -30 -10 -30 -5 0 -10 -9 -10 -20 0
-11 -4 -20 -10 -20 -5 0 -10 -9 -10 -20 0 -11 -4 -20 -10 -20 -5 0 -10 -9 -10
-20 0 -11 -4 -20 -10 -20 -5 0 -10 -9 -10 -20 0 -11 -4 -20 -10 -20 -5 0 -10
14 -10 30 l0 30 -230 0 -230 0 0 40 0 40 210 0 210 0 0 130 0 130 60 0 60 0 0
80 0 80 -60 0 -60 0 0 120 0 120 -210 0 -210 0 0 80 0 80 -80 0 -80 0 0 -80z
m0 -290 l0 -50 -110 0 -110 0 0 50 0 50 110 0 110 0 0 -50z m400 0 l0 -50
-120 0 -120 0 0 50 0 50 120 0 120 0 0 -50z m-400 -250 l0 -60 -110 0 -110 0
0 60 0 60 110 0 110 0 0 -60z m400 0 l0 -60 -120 0 -120 0 0 60 0 60 120 0
120 0 0 -60z m840 -80 c0 -22 -4 -40 -10 -40 -6 0 -10 -30 -10 -70 0 -40 -4
-70 -10 -70 -5 0 -10 -22 -10 -50 0 -27 -4 -50 -10 -50 -5 0 -10 -22 -10 -50
0 -27 -4 -50 -10 -50 -5 0 -10 -18 -10 -40 0 -22 -4 -40 -10 -40 -5 0 -10 -13
-10 -30 0 -16 -4 -30 -10 -30 -5 0 -10 -12 -10 -26 0 -23 -20 -54 -34 -54 -3
0 -6 14 -6 30 0 17 -4 30 -10 30 -5 0 -10 14 -10 30 0 17 -4 30 -10 30 -5 0
-10 14 -10 30 0 17 -4 30 -10 30 -5 0 -10 18 -10 40 0 22 -4 40 -10 40 -5 0
-10 23 -10 50 0 28 -4 50 -10 50 -5 0 -10 23 -10 50 0 28 -4 50 -10 50 -5 0
-10 23 -10 50 0 28 -4 50 -10 50 -5 0 -10 18 -10 40 l0 40 150 0 150 0 0 -40z
m-400 -310 c0 -16 5 -30 10 -30 6 0 10 -18 10 -40 0 -22 5 -40 10 -40 6 0 10
-18 10 -40 0 -22 5 -40 10 -40 6 0 10 -18 10 -40 0 -22 5 -40 10 -40 6 0 10
-13 10 -30 0 -16 5 -30 10 -30 6 0 10 -13 10 -30 0 -16 5 -30 10 -30 6 0 10
-13 10 -30 0 -16 5 -30 10 -30 6 0 10 -13 10 -29 0 -16 6 -31 13 -34 8 -3 5
-11 -10 -24 -13 -11 -23 -27 -23 -34 0 -8 -9 -21 -20 -29 -11 -8 -20 -21 -20
-28 0 -7 -18 -31 -40 -52 -22 -21 -40 -43 -40 -50 0 -14 -46 -60 -60 -60 -6 0
-33 -22 -60 -50 -27 -27 -55 -50 -62 -50 -8 0 -20 -9 -28 -20 -8 -11 -22 -20
-32 -20 -10 0 -18 -4 -18 -10 0 -5 -9 -10 -19 -10 -11 0 -22 -6 -25 -12 -5
-10 -7 -10 -12 0 -3 6 -14 12 -25 12 -10 0 -19 5 -19 10 0 6 -9 10 -20 10 -11
0 -20 5 -20 10 0 6 -9 10 -20 10 -11 0 -20 5 -20 10 0 6 -9 10 -20 10 -11 0
-20 5 -20 10 0 6 -12 10 -26 10 -14 0 -32 7 -41 15 -13 14 -11 18 16 44 17 16
31 35 31 43 0 7 9 20 20 28 11 8 20 22 20 32 0 10 5 18 10 18 6 0 10 9 10 20
0 11 5 20 10 20 6 0 10 12 10 26 0 47 18 54 144 54 l116 0 0 80 0 80 -110 0
-110 0 0 40 0 40 -90 0 -90 0 0 -40 0 -40 -120 0 c-113 0 -120 1 -120 20 0 11
5 20 10 20 6 0 10 9 10 20 0 11 5 20 10 20 6 0 10 9 10 20 0 20 7 20 270 20
l270 0 0 90 c0 50 3 90 6 90 3 0 23 -18 44 -40 44 -45 50 -48 50 -20 0 11 5
20 10 20 6 0 10 8 10 18 0 10 9 24 20 32 11 8 20 22 20 32 0 10 5 18 10 18 6
0 10 9 10 20 0 11 5 20 10 20 6 0 10 9 10 20 0 11 5 20 10 20 6 0 10 -13 10
-30z m-840 -90 l0 -60 -130 0 -130 0 0 60 0 60 130 0 130 0 0 -60z m440 0 l0
-60 -140 0 -140 0 0 60 0 60 140 0 140 0 0 -60z m-180 -490 c0 -5 -4 -10 -10
-10 -5 0 -10 -9 -10 -20 0 -11 -4 -20 -10 -20 -5 0 -10 -7 -10 -15 0 -26 -107
-125 -135 -125 -14 0 -25 5 -25 10 0 6 -13 10 -30 10 -16 0 -30 5 -30 10 0 6
-9 10 -20 10 -11 0 -20 5 -20 10 0 6 -18 10 -40 10 -38 0 -40 2 -40 30 0 17 5
30 10 30 6 0 10 7 10 15 0 9 10 27 23 40 21 23 26 24 180 24 98 1 157 -3 157
-9z"/>
<path d="M35410 10780 c0 -5 -18 -10 -40 -10 -22 0 -40 -4 -40 -10 0 -5 -9
-10 -20 -10 -13 0 -20 -7 -20 -20 0 -11 5 -20 10 -20 6 0 10 -13 10 -30 0 -16
5 -30 10 -30 6 0 10 -13 10 -30 0 -16 5 -30 10 -30 6 0 10 -18 10 -40 0 -22 5
-40 10 -40 6 0 10 -18 10 -40 0 -22 5 -40 10 -40 6 0 10 -18 10 -40 l0 -40
-290 0 -290 0 0 -90 0 -90 650 0 650 0 0 90 0 90 -330 0 c-213 0 -330 4 -330
10 0 6 9 10 20 10 11 0 20 5 20 10 0 6 14 10 30 10 17 0 30 5 30 10 0 6 9 10
20 10 16 0 20 7 20 30 0 17 -4 30 -10 30 -5 0 -10 18 -10 40 0 22 -4 40 -10
40 -5 0 -10 14 -10 30 0 17 -4 30 -10 30 -5 0 -10 14 -10 30 0 17 -4 30 -10
30 -5 0 -10 9 -10 20 0 11 -4 20 -10 20 -5 0 -10 12 -10 26 0 14 -6 32 -14 40
-17 16 -66 19 -66 4z"/>
<path d="M27290 10760 c0 -5 -8 -10 -18 -10 -10 0 -24 -9 -32 -20 -8 -11 -22
-20 -32 -20 -11 0 -18 -7 -18 -20 0 -11 5 -20 10 -20 6 0 10 -7 10 -16 0 -8
18 -33 40 -54 22 -21 40 -44 40 -50 0 -7 14 -25 30 -40 17 -15 30 -34 30 -42
0 -7 9 -20 20 -28 11 -8 20 -21 20 -30 0 -9 9 -22 20 -30 11 -8 20 -22 20 -32
0 -10 5 -18 10 -18 6 0 10 -9 10 -20 0 -29 28 -25 60 10 15 17 34 30 42 30 7
0 20 9 28 20 8 11 22 20 32 20 10 0 18 5 18 10 0 6 -4 10 -10 10 -5 0 -10 7
-10 16 0 9 -13 29 -30 44 -16 15 -30 33 -30 40 0 7 -13 25 -30 40 -16 15 -30
33 -30 40 0 7 -13 25 -30 40 -16 15 -30 33 -30 39 0 23 -89 101 -115 101 -14
0 -25 -4 -25 -10z"/>
<path d="M34630 10750 c0 -11 -4 -20 -10 -20 -5 0 -10 -9 -10 -20 0 -11 -4
-20 -10 -20 -5 0 -10 -13 -10 -30 0 -16 -4 -30 -10 -30 -5 0 -10 -9 -10 -20 0
-11 -4 -20 -10 -20 -5 0 -10 -9 -10 -20 0 -11 -4 -20 -10 -20 -5 0 -10 -9 -10
-20 0 -11 -4 -20 -10 -20 -5 0 -10 -9 -10 -20 0 -11 -4 -20 -10 -20 -5 0 -10
-9 -10 -20 0 -11 -4 -20 -10 -20 -5 0 -10 -9 -10 -20 0 -11 -4 -20 -10 -20 -5
0 -10 -9 -10 -20 0 -11 -4 -20 -10 -20 -5 0 -10 -8 -10 -18 0 -10 -9 -24 -20
-32 -11 -8 -20 -22 -20 -32 0 -10 -4 -18 -10 -18 -5 0 -10 -8 -10 -18 0 -10
-9 -24 -20 -32 -11 -8 -20 -21 -20 -28 0 -8 -13 -27 -30 -42 -16 -15 -30 -33
-30 -40 0 -7 -13 -25 -30 -40 -16 -15 -30 -33 -30 -39 0 -7 -36 -47 -80 -91
-44 -44 -80 -85 -80 -92 0 -8 9 -20 20 -28 11 -8 20 -21 20 -30 0 -9 9 -22 20
-30 11 -8 20 -22 20 -32 0 -10 5 -18 10 -18 6 0 10 -13 10 -30 0 -16 2 -30 5
-30 10 0 95 90 95 100 0 6 23 33 50 60 28 27 50 56 50 64 0 9 9 16 20 16 20 0
20 -7 20 -620 l0 -620 100 0 100 0 0 800 c0 527 3 800 10 800 6 0 10 9 10 20
0 11 5 20 10 20 6 0 10 9 10 20 0 11 5 20 10 20 6 0 10 9 10 20 0 11 5 20 10
20 6 0 10 9 10 20 0 11 5 20 10 20 6 0 10 9 10 20 0 11 5 20 10 20 6 0 10 9
10 20 0 11 5 20 10 20 6 0 10 9 10 20 0 11 5 20 10 20 6 0 10 9 10 20 0 11 5
20 10 20 6 0 10 14 10 30 0 17 5 30 10 30 6 0 10 9 10 20 0 11 5 20 10 20 6 0
10 18 10 40 0 38 -2 40 -30 40 -16 0 -30 5 -30 10 0 6 -18 10 -40 10 -22 0
-40 5 -40 10 0 6 -9 10 -20 10 -13 0 -20 -7 -20 -20z"/>
<path d="M27710 10540 l0 -90 290 0 c160 0 290 -3 290 -6 0 -10 -28 -34 -40
-34 -6 0 -29 -18 -50 -40 -21 -22 -45 -40 -52 -40 -7 0 -20 -9 -28 -20 -8 -11
-21 -20 -30 -20 -9 0 -22 -9 -30 -20 -8 -11 -22 -20 -32 -20 -10 0 -18 -4 -18
-10 0 -5 -8 -10 -18 -10 -10 0 -24 -9 -32 -20 -8 -11 -22 -20 -32 -20 -10 0
-18 -4 -18 -10 0 -5 -9 -10 -20 -10 -11 0 -20 -4 -20 -10 0 -5 -9 -10 -20 -10
-11 0 -20 -4 -20 -10 0 -5 -9 -10 -20 -10 -11 0 -20 -4 -20 -10 0 -5 -9 -10
-20 -10 -11 0 -20 -4 -20 -10 0 -5 -13 -10 -30 -10 -16 0 -30 -4 -30 -10 0 -5
-9 -10 -20 -10 -11 0 -20 4 -20 8 0 4 9 14 20 22 11 8 20 21 20 30 0 9 9 22
20 30 31 23 26 50 -10 50 -16 0 -30 5 -30 10 0 6 -9 10 -20 10 -11 0 -20 5
-20 10 0 6 -92 10 -256 10 -208 0 -258 -3 -270 -14 -10 -10 -14 -38 -14 -90
l0 -76 170 0 c156 0 170 -1 170 -18 0 -10 -9 -24 -20 -32 -11 -8 -20 -21 -20
-28 0 -8 -13 -27 -30 -42 -16 -15 -30 -34 -30 -42 0 -7 -9 -20 -20 -28 -11 -8
-20 -21 -20 -28 0 -8 -13 -27 -30 -42 -16 -15 -30 -33 -30 -39 0 -17 -87 -101
-105 -101 -8 0 -15 -4 -15 -10 0 -5 -9 -10 -20 -10 -13 0 -20 -7 -20 -20 0
-11 5 -20 10 -20 6 0 10 -9 10 -20 0 -11 5 -20 10 -20 6 0 10 -13 10 -30 0
-16 5 -30 10 -30 6 0 10 -13 10 -30 0 -35 10 -38 30 -10 13 19 26 20 172 20
99 0 158 -4 158 -10 0 -5 -4 -10 -10 -10 -5 0 -10 -18 -10 -40 0 -22 -4 -40
-10 -40 -5 0 -10 -18 -10 -40 0 -22 -4 -40 -10 -40 -5 0 -10 -13 -10 -30 0
-16 -4 -30 -10 -30 -5 0 -10 -9 -10 -20 0 -11 -4 -20 -10 -20 -5 0 -10 -13
-10 -30 0 -16 -4 -30 -10 -30 -5 0 -10 -9 -10 -20 0 -11 -4 -20 -10 -20 -5 0
-10 -9 -10 -20 0 -11 -4 -20 -10 -20 -5 0 -10 -8 -10 -18 0 -10 -9 -24 -20
-32 -11 -8 -20 -21 -20 -30 0 -9 -9 -22 -20 -30 -11 -8 -20 -20 -20 -27 0 -19
-146 -163 -165 -163 -8 0 -15 -7 -15 -15 0 -21 133 -152 138 -137 2 7 10 12
18 12 17 0 124 104 124 121 0 6 14 24 30 39 17 15 30 34 30 42 0 7 9 20 20 28
11 8 20 20 20 28 0 16 24 42 40 42 6 0 38 -27 70 -60 32 -33 66 -60 74 -60 9
0 16 -4 16 -10 0 -5 8 -10 18 -10 10 0 24 -9 32 -20 8 -12 26 -20 42 -20 15 0
28 -4 28 -10 0 -5 14 -10 30 -10 17 0 30 -4 30 -10 0 -5 14 -10 30 -10 17 0
30 -4 30 -10 0 -6 27 -10 60 -10 33 0 60 -4 60 -10 0 -6 43 -10 110 -10 67 0
110 -4 110 -10 0 -6 107 -10 300 -10 193 0 300 4 300 10 0 6 70 10 190 10 183
0 190 1 190 20 0 11 5 20 10 20 6 0 10 18 10 40 0 22 5 40 10 40 6 0 10 9 10
20 0 11 5 20 10 20 6 0 10 9 10 20 0 16 -7 20 -30 20 -16 0 -30 -4 -30 -10 0
-6 -73 -10 -200 -10 -127 0 -200 -4 -200 -10 0 -6 -110 -10 -310 -10 -200 0
-310 4 -310 10 0 6 -40 10 -100 10 -60 0 -100 4 -100 10 0 6 -22 10 -50 10
-27 0 -50 5 -50 10 0 6 -13 10 -30 10 -16 0 -30 5 -30 10 0 6 -9 10 -20 10
-11 0 -20 5 -20 10 0 6 -9 10 -20 10 -11 0 -20 5 -20 10 0 6 -7 10 -15 10 -8
0 -49 34 -90 75 -65 65 -75 79 -75 110 0 19 5 35 10 35 6 0 10 14 10 30 0 17
5 30 10 30 6 0 10 14 10 30 0 17 5 30 10 30 6 0 10 18 10 40 0 22 5 40 10 40
6 0 10 18 10 40 0 22 5 40 10 40 6 0 10 23 10 50 0 28 5 50 10 50 15 0 12 70
-4 86 -8 8 -22 14 -30 14 -9 0 -16 5 -16 10 0 6 -50 10 -130 10 -71 0 -130 4
-130 8 0 4 9 14 20 22 11 8 20 21 20 28 0 8 14 27 30 42 17 15 30 34 30 42 0
7 9 20 20 28 11 8 20 21 20 28 0 8 14 27 30 42 17 15 30 34 30 42 0 7 9 20 20
28 11 8 20 20 20 28 0 16 24 42 40 42 14 0 80 -66 80 -80 0 -16 47 -60 65 -60
8 0 15 5 15 10 0 6 9 10 20 10 11 0 20 5 20 10 0 6 9 10 20 10 11 0 20 5 20
10 0 6 9 10 20 10 11 0 20 5 20 10 0 6 9 10 20 10 11 0 20 5 20 10 0 6 8 10
18 10 10 0 24 9 32 20 8 11 22 20 32 20 10 0 18 5 18 10 0 6 8 10 18 10 10 0
24 9 32 20 8 11 21 20 30 20 9 0 22 9 30 20 8 11 22 20 32 20 10 0 18 5 18 10
0 6 12 10 26 10 27 0 54 -20 54 -41 0 -6 9 -20 21 -30 l21 -18 -46 -45 c-25
-25 -51 -46 -57 -46 -6 0 -24 -13 -39 -30 -15 -16 -34 -30 -42 -30 -7 0 -20
-9 -28 -20 -8 -11 -21 -20 -30 -20 -9 0 -22 -9 -30 -20 -8 -11 -22 -20 -32
-20 -10 0 -18 -4 -18 -10 0 -5 -9 -10 -20 -10 -11 0 -20 -4 -20 -10 0 -5 -9
-10 -20 -10 -11 0 -20 -4 -20 -10 0 -5 -9 -10 -20 -10 -11 0 -20 -4 -20 -10 0
-5 -9 -10 -20 -10 -11 0 -20 -4 -20 -10 0 -5 -9 -10 -20 -10 -11 0 -20 -4 -20
-10 0 -5 -9 -10 -20 -10 -11 0 -20 -4 -20 -10 0 -5 -13 -10 -30 -10 -16 0 -30
-3 -30 -6 0 -3 18 -23 40 -44 22 -21 40 -44 40 -50 0 -20 27 -40 54 -40 14 0
26 5 26 10 0 6 9 10 20 10 11 0 20 5 20 10 0 6 9 10 20 10 11 0 20 5 20 10 0
6 9 10 20 10 11 0 20 5 20 10 0 6 9 10 20 10 11 0 20 5 20 10 0 6 8 10 18 10
10 0 24 9 32 20 8 11 22 20 32 20 10 0 18 5 18 10 0 6 8 10 18 10 10 0 24 9
32 20 8 11 21 20 28 20 8 0 27 14 42 30 15 17 33 30 40 30 6 0 29 18 50 40 21
22 46 40 54 40 9 0 16 5 16 10 0 6 5 10 10 10 6 0 10 -9 10 -20 0 -11 5 -20
10 -20 6 0 10 -9 10 -20 0 -11 5 -20 10 -20 6 0 10 -13 10 -29 0 -16 5 -31 12
-33 13 -5 -135 -158 -153 -158 -6 0 -28 -18 -49 -40 -21 -22 -45 -40 -52 -40
-7 0 -20 -9 -28 -20 -8 -11 -21 -20 -30 -20 -9 0 -22 -9 -30 -20 -8 -11 -21
-20 -30 -20 -9 0 -22 -9 -30 -20 -8 -11 -22 -20 -32 -20 -10 0 -18 -4 -18 -10
0 -5 -9 -10 -20 -10 -11 0 -20 -4 -20 -10 0 -5 -9 -10 -20 -10 -11 0 -20 -4
-20 -10 0 -5 -9 -10 -20 -10 -11 0 -20 -4 -20 -10 0 -5 -9 -10 -20 -10 -11 0
-20 -4 -20 -10 0 -5 -9 -10 -20 -10 -11 0 -20 -4 -20 -10 0 -5 -9 -10 -20 -10
-11 0 -20 -4 -20 -10 0 -5 -13 -10 -30 -10 -16 0 -30 -4 -30 -10 0 -5 -12 -10
-26 -10 -14 0 -32 -7 -41 -15 -14 -14 -13 -18 6 -34 12 -10 21 -24 21 -30 0
-22 69 -81 95 -81 14 0 25 5 25 10 0 6 14 10 30 10 17 0 30 5 30 10 0 6 9 10
20 10 11 0 20 5 20 10 0 6 9 10 20 10 11 0 20 5 20 10 0 6 9 10 20 10 11 0 20
5 20 10 0 6 9 10 20 10 11 0 20 5 20 10 0 6 9 10 20 10 11 0 20 5 20 10 0 6 8
10 18 10 10 0 24 9 32 20 8 11 21 20 30 20 9 0 22 9 30 20 8 11 21 20 30 20 9
0 22 9 30 20 8 11 21 20 30 20 9 0 22 9 30 20 8 11 20 20 28 20 7 0 35 23 62
50 27 28 54 50 60 50 7 0 25 14 40 30 15 17 31 30 34 30 3 0 6 -58 6 -130 0
-80 -4 -130 -10 -130 -5 0 -10 -13 -10 -28 0 -16 -8 -34 -20 -42 -11 -8 -20
-20 -20 -28 0 -18 -25 -42 -44 -42 -9 0 -16 -4 -16 -10 0 -6 -57 -10 -150 -10
-93 0 -150 -4 -150 -10 0 -5 5 -10 10 -10 6 0 10 -9 10 -20 0 -11 5 -20 10
-20 6 0 10 -27 10 -60 l0 -60 160 0 c100 0 160 4 160 10 0 6 14 10 30 10 17 0
30 5 30 10 0 6 7 10 15 10 20 0 105 85 105 105 0 8 5 15 10 15 6 0 10 9 10 20
0 11 5 20 10 20 6 0 10 14 10 30 0 17 5 30 10 30 6 0 10 23 10 50 0 28 5 50
10 50 6 0 10 47 10 120 0 73 -4 120 -10 120 -5 0 -10 9 -10 20 0 11 7 20 15
20 17 0 205 -184 205 -201 0 -5 23 -32 50 -59 28 -27 50 -54 50 -60 0 -6 11
-22 25 -36 l25 -25 49 50 c28 28 57 51 65 51 28 0 19 49 -14 80 -16 15 -30 33
-30 39 0 14 -266 281 -281 281 -5 0 -32 23 -59 50 -27 28 -54 50 -60 50 -15 0
-40 25 -40 40 0 14 86 100 100 100 6 0 33 23 60 50 27 28 54 50 59 50 6 0 54
43 107 95 83 84 93 97 80 110 -8 8 -21 15 -28 15 -8 0 -20 9 -28 20 -8 11 -22
20 -32 20 -10 0 -18 5 -18 10 0 6 -9 10 -19 10 -11 0 -21 6 -23 12 -5 15 -38
-13 -38 -31 0 -15 -227 -241 -241 -241 -6 0 -28 -18 -49 -40 -42 -44 -70 -52
-70 -20 0 11 -4 20 -10 20 -5 0 -10 8 -10 18 0 10 -9 24 -20 32 -11 8 -20 21
-20 28 0 8 -13 27 -30 42 -16 15 -30 33 -30 40 0 7 -13 25 -30 40 -16 15 -30
33 -30 40 0 6 27 38 60 70 33 32 60 66 60 74 0 14 38 16 326 16 269 0 328 2
340 14 10 10 14 38 14 90 l0 76 -750 0 -750 0 0 -90z"/>
<path d="M3750 9255 l0 -1195 285 0 285 0 2 806 3 807 414 -592 c228 -325 417
-591 420 -590 3 0 191 265 416 589 226 324 413 589 418 589 4 1 7 -361 7 -804
l0 -805 280 0 280 0 0 1195 0 1195 -313 0 -314 0 -383 -576 c-211 -316 -387
-577 -390 -579 -3 -2 -186 257 -406 575 l-399 579 -302 0 -303 1 0 -1195z"/>
<path d="M6960 9255 l0 -1195 685 0 685 0 0 240 0 240 -435 0 -435 0 0 240 0
240 390 0 390 0 0 240 0 240 -390 0 -390 0 0 240 0 240 435 0 435 0 0 235 0
235 -685 0 -685 0 0 -1195z"/>
<path d="M8660 10215 l0 -235 285 0 c157 0 285 -1 286 -2 2 -8 28 -1608 29
-1750 l0 -168 255 0 255 0 0 960 0 960 285 0 285 0 0 235 0 235 -840 0 -840 0
0 -235z"/>
<path d="M10802 9435 l-582 -1014 104 -178 104 -178 749 -2 748 -3 100 173
c55 94 101 177 103 183 2 6 -13 41 -33 78 -20 36 -35 66 -32 66 2 0 67 -112
143 -250 l139 -249 749 2 748 2 103 175 103 175 -747 3 -747 2 -207 370 c-114
203 -207 371 -207 374 0 4 93 6 208 6 l207 0 58 90 59 89 -67 126 c-36 69 -64
125 -62 125 2 0 107 -178 233 -395 l229 -395 208 0 c115 0 206 3 204 8 -9 15
-380 655 -655 1127 -156 270 -288 494 -292 498 -4 5 -128 -199 -275 -453
l-268 -462 -18 29 c-9 15 -128 219 -264 453 -136 234 -250 428 -254 432 -4 5
-269 -449 -589 -1007z m1728 195 c6 -11 8 -20 6 -20 -3 0 -10 9 -16 20 -6 11
-8 20 -6 20 3 0 10 -9 16 -20z m-940 -240 l128 -221 -105 -180 -105 -179 -113
0 -113 0 154 265 c85 146 154 271 154 278 0 7 -6 21 -13 32 -20 30 -131 241
-123 233 4 -3 65 -106 136 -228z m450 -780 c6 -11 8 -20 6 -20 -3 0 -10 9 -16
20 -6 11 -8 20 -6 20 3 0 10 -9 16 -20z"/>
<path d="M35763 10055 c-8 -8 -13 -41 -13 -80 0 -37 -4 -65 -10 -65 -6 0 -10
-30 -10 -70 0 -40 -4 -70 -10 -70 -6 0 -10 -27 -10 -60 0 -33 -4 -60 -10 -60
-5 0 -10 -22 -10 -50 0 -27 -4 -50 -10 -50 -5 0 -10 -22 -10 -50 0 -27 -4 -50
-10 -50 -6 0 -10 -27 -10 -60 0 -33 -4 -60 -10 -60 -5 0 -10 -18 -10 -40 0
-22 -4 -40 -10 -40 -5 0 -10 -22 -10 -50 0 -27 -4 -50 -10 -50 -5 0 -10 -18
-10 -40 0 -22 -4 -40 -10 -40 -5 0 -10 -22 -10 -50 0 -27 -4 -50 -10 -50 -5 0
-10 -13 -10 -30 l0 -30 -410 0 -410 0 0 -100 0 -100 740 0 740 0 0 100 0 100
-240 0 c-233 0 -240 1 -240 20 0 11 5 20 10 20 6 0 10 18 10 40 0 22 5 40 10
40 6 0 10 18 10 40 0 22 5 40 10 40 6 0 10 18 10 40 0 22 5 40 10 40 6 0 10
18 10 40 0 22 5 40 10 40 6 0 10 23 10 50 0 28 5 50 10 50 6 0 10 18 10 40 0
22 5 40 10 40 6 0 10 23 10 50 0 28 5 50 10 50 6 0 10 23 10 50 0 28 5 50 10
50 6 0 10 23 10 50 0 28 5 50 10 50 6 0 10 27 10 60 0 33 4 60 10 60 6 0 10
23 10 50 0 28 5 50 10 50 6 0 10 14 10 30 0 27 -3 30 -30 30 -16 0 -30 5 -30
10 0 6 -27 10 -60 10 -33 0 -60 4 -60 10 0 14 -13 12 -27 -5z"/>
<path d="M35110 10040 c0 -5 -18 -10 -40 -10 -22 0 -40 -4 -40 -10 0 -5 -13
-10 -30 -10 -23 0 -30 -4 -30 -20 0 -11 5 -20 10 -20 6 0 10 -22 10 -50 0 -27
5 -50 10 -50 6 0 10 -22 10 -50 0 -27 5 -50 10 -50 6 0 10 -27 10 -60 0 -33 4
-60 10 -60 6 0 10 -22 10 -50 0 -27 5 -50 10 -50 6 0 10 -30 10 -70 0 -40 4
-70 10 -70 6 0 10 -27 10 -60 0 -33 4 -60 10 -60 6 0 10 -37 10 -90 0 -53 4
-90 10 -90 6 0 10 -27 10 -60 l0 -60 30 0 c17 0 30 5 30 10 0 6 14 10 30 10
17 0 30 5 30 10 0 6 18 10 40 10 l40 0 0 50 c0 28 -4 50 -10 50 -6 0 -10 30
-10 70 0 40 -4 70 -10 70 -6 0 -10 30 -10 70 0 40 -4 70 -10 70 -6 0 -10 27
-10 60 0 33 -4 60 -10 60 -5 0 -10 23 -10 50 0 28 -4 50 -10 50 -5 0 -10 23
-10 50 0 28 -4 50 -10 50 -5 0 -10 23 -10 50 0 28 -4 50 -10 50 -5 0 -10 23
-10 50 0 28 -4 50 -10 50 -5 0 -10 18 -10 40 0 22 -4 40 -10 40 -5 0 -10 9
-10 20 0 13 -7 20 -20 20 -11 0 -20 -4 -20 -10z"/>
<path d="M29923 9555 c-10 -11 -13 -99 -13 -365 l0 -351 -25 -24 c-13 -14 -31
-25 -40 -25 -8 0 -15 -4 -15 -10 0 -5 5 -10 10 -10 6 0 10 -9 10 -20 0 -11 5
-20 10 -20 6 0 10 -9 10 -20 0 -11 5 -20 10 -20 6 0 10 -12 10 -26 0 -29 31
-67 38 -46 2 6 17 12 33 12 16 0 29 5 29 10 0 6 23 10 50 10 28 0 50 5 50 10
0 6 27 10 60 10 33 0 60 4 60 10 0 6 30 10 70 10 40 0 70 4 70 10 0 6 30 10
70 10 40 0 70 4 70 10 0 6 30 10 70 10 l70 0 0 90 0 90 -30 0 c-16 0 -30 -4
-30 -10 0 -6 -33 -10 -80 -10 -47 0 -80 -4 -80 -10 0 -6 -33 -10 -80 -10 -47
0 -80 -4 -80 -10 0 -6 -30 -10 -70 -10 l-70 0 0 150 0 150 250 0 250 0 0 90 0
90 -250 0 -250 0 0 120 0 120 -87 0 c-63 -1 -92 -5 -100 -15z"/>
<path d="M30690 9170 c0 -247 4 -380 10 -380 6 0 10 -16 10 -35 0 -44 55 -105
95 -105 14 0 25 -4 25 -10 0 -6 103 -10 290 -10 187 0 290 4 290 10 0 6 9 10
20 10 11 0 20 5 20 10 0 6 9 10 20 10 13 0 20 7 20 20 0 11 5 20 10 20 6 0 10
9 10 20 0 11 5 20 10 20 6 0 10 14 10 30 0 17 5 30 10 30 6 0 10 33 10 80 l0
80 -30 0 c-16 0 -30 5 -30 10 0 6 -9 10 -20 10 -11 0 -20 5 -20 10 0 6 -9 10
-20 10 -11 0 -20 5 -20 10 0 6 -4 10 -10 10 -5 0 -10 -9 -10 -20 0 -11 -4 -20
-10 -20 -6 0 -10 -32 -10 -76 0 -52 -4 -80 -14 -90 -21 -21 -431 -21 -452 0
-11 11 -14 49 -14 170 l0 156 286 0 c234 0 288 3 300 14 10 10 14 38 14 90 l0
76 -300 0 -300 0 0 110 0 110 -100 0 -100 0 0 -380z"/>
<path d="M27150 8160 c0 -21 5 -30 16 -30 43 0 44 -7 44 -444 0 -372 -2 -416
-16 -416 -20 0 -44 -24 -44 -44 0 -14 17 -16 110 -16 103 0 110 1 110 20 0 13
-7 20 -20 20 -11 0 -20 5 -20 10 0 6 -9 10 -20 10 -20 0 -20 7 -20 320 0 207
4 320 10 320 6 0 10 -13 10 -30 0 -16 5 -30 10 -30 6 0 10 -9 10 -20 0 -11 5
-20 10 -20 6 0 10 -13 10 -30 0 -16 5 -30 10 -30 6 0 10 -9 10 -20 0 -11 5
-20 10 -20 6 0 10 -13 10 -30 0 -16 5 -30 10 -30 6 0 10 -13 10 -30 0 -16 5
-30 10 -30 6 0 10 -9 10 -20 0 -11 5 -20 10 -20 6 0 10 -13 10 -30 0 -16 5
-30 10 -30 6 0 10 -13 10 -30 0 -16 5 -30 10 -30 6 0 10 -9 10 -20 0 -11 5
-20 10 -20 6 0 10 -13 10 -30 0 -16 5 -30 10 -30 6 0 10 -9 10 -20 0 -11 5
-20 10 -20 6 0 10 -12 10 -26 0 -38 22 -54 74 -54 44 0 46 1 46 30 0 17 5 30
10 30 6 0 10 9 10 20 0 11 5 20 10 20 6 0 10 14 10 30 0 17 5 30 10 30 6 0 10
14 10 30 0 17 5 30 10 30 6 0 10 14 10 30 0 17 5 30 10 30 6 0 10 9 10 20 0
11 5 20 10 20 6 0 10 14 10 30 0 17 5 30 10 30 6 0 10 14 10 30 0 17 5 30 10
30 6 0 10 14 10 30 0 17 5 30 10 30 6 0 10 9 10 20 0 11 5 20 10 20 6 0 10 14
10 30 0 17 5 30 10 30 6 0 10 14 10 30 0 17 5 30 10 30 6 0 10 14 10 30 0 17
5 30 10 30 6 0 10 -112 10 -315 l0 -316 -25 -24 c-13 -14 -31 -25 -40 -25 -8
0 -15 -9 -15 -19 0 -19 10 -20 200 -21 177 -1 200 1 200 15 0 21 -24 45 -44
45 -8 0 -16 8 -18 17 -2 9 -2 202 0 430 2 365 4 413 18 413 20 0 44 24 44 44
0 14 -21 16 -160 16 l-160 0 0 -30 c0 -16 -4 -30 -10 -30 -5 0 -10 -9 -10 -20
0 -11 -4 -20 -10 -20 -5 0 -10 -13 -10 -30 0 -16 -4 -30 -10 -30 -5 0 -10 -13
-10 -30 0 -16 -4 -30 -10 -30 -5 0 -10 -13 -10 -30 0 -16 -4 -30 -10 -30 -5 0
-10 -13 -10 -30 0 -16 -4 -30 -10 -30 -5 0 -10 -9 -10 -20 0 -11 -4 -20 -10
-20 -5 0 -10 -13 -10 -30 0 -16 -4 -30 -10 -30 -5 0 -10 -13 -10 -30 0 -16 -4
-30 -10 -30 -5 0 -10 -13 -10 -30 0 -16 -4 -30 -10 -30 -5 0 -10 -9 -10 -20 0
-11 -4 -20 -10 -20 -5 0 -10 -9 -10 -20 0 -11 -3 -20 -6 -20 -14 0 -34 31 -34
54 0 14 -4 26 -10 26 -5 0 -10 14 -10 30 0 17 -4 30 -10 30 -5 0 -10 9 -10 20
0 11 -4 20 -10 20 -5 0 -10 14 -10 30 0 17 -4 30 -10 30 -5 0 -10 9 -10 20 0
11 -4 20 -10 20 -5 0 -10 14 -10 30 0 17 -4 30 -10 30 -5 0 -10 14 -10 30 0
17 -4 30 -10 30 -5 0 -10 9 -10 20 0 11 -4 20 -10 20 -5 0 -10 14 -10 30 0 17
-4 30 -10 30 -5 0 -10 14 -10 30 0 17 -4 30 -10 30 -5 0 -10 9 -10 20 0 11 -4
20 -10 20 -5 0 -10 9 -10 20 0 19 -7 20 -150 20 l-150 0 0 -30z"/>
<path d="M29090 8040 c-47 -49 -93 -89 -102 -89 -10 -1 -18 -5 -18 -11 0 -5
-13 -10 -30 -10 -16 0 -30 -4 -30 -10 0 -5 -9 -10 -20 -10 -13 0 -20 -7 -20
-20 0 -17 7 -20 50 -20 l50 0 0 -270 c0 -173 4 -270 10 -270 6 0 10 -11 10
-25 0 -29 59 -95 85 -95 8 0 15 -4 15 -10 0 -13 177 -14 182 -1 2 5 14 11 28
13 14 1 42 20 63 41 l37 39 39 -41 c26 -27 48 -41 65 -41 14 0 26 -4 26 -10 0
-6 33 -10 80 -10 47 0 80 4 80 10 0 6 7 10 16 10 9 0 29 14 44 30 15 17 33 30
40 30 7 0 25 -13 40 -30 15 -16 35 -30 44 -30 9 0 16 -4 16 -10 0 -6 30 -10
70 -10 40 0 70 4 70 10 0 6 7 10 15 10 9 0 32 16 51 35 31 31 33 37 20 50 -8
8 -31 15 -50 15 l-36 0 0 200 c0 127 -4 200 -10 200 -5 0 -10 23 -10 50 0 28
-4 50 -10 50 -5 0 -10 7 -10 15 0 20 -65 85 -85 85 -8 0 -15 5 -15 10 0 6 -9
10 -20 10 -11 0 -20 5 -20 10 0 6 -47 10 -120 10 -73 0 -120 -4 -120 -10 0 -5
-13 -10 -30 -10 -16 0 -30 -4 -30 -10 0 -5 -7 -10 -15 -10 -9 0 -36 -20 -60
-45 -43 -43 -45 -47 -45 -105 0 -63 13 -90 44 -90 9 0 16 -4 16 -10 0 -5 14
-10 30 -10 17 0 30 5 30 10 0 6 7 10 15 10 25 0 65 46 65 75 0 14 5 25 10 25
6 0 10 21 10 46 0 54 16 74 60 74 34 0 60 -19 60 -44 0 -9 5 -16 10 -16 6 0
10 -40 10 -100 l0 -100 -30 0 c-16 0 -30 -4 -30 -10 0 -5 -22 -10 -50 -10 -27
0 -50 -4 -50 -10 0 -5 -13 -10 -30 -10 -16 0 -30 -4 -30 -10 0 -5 -13 -10 -28
-10 -16 0 -34 -8 -42 -20 -8 -11 -20 -20 -28 -20 -18 0 -42 -25 -42 -44 0 -9
-4 -16 -10 -16 -5 0 -10 -9 -10 -20 0 -11 -4 -20 -10 -20 -5 0 -10 -16 -10
-35 0 -38 -36 -85 -65 -85 -8 0 -15 -4 -15 -10 0 -5 -18 -10 -40 -10 -33 0
-40 3 -40 20 0 11 -4 20 -10 20 -6 0 -10 97 -10 270 l0 270 80 0 80 0 0 30 0
30 -80 0 -80 0 0 100 c0 128 -7 128 -120 10z m700 -576 c0 -109 -8 -134 -44
-134 -9 0 -16 -4 -16 -10 0 -15 -70 -12 -86 4 -8 8 -14 22 -14 30 0 9 -4 16
-10 16 -5 0 -10 18 -10 40 0 22 5 40 10 40 6 0 10 7 10 15 0 26 66 85 95 85
14 0 25 5 25 10 0 6 9 10 20 10 19 0 20 -7 20 -106z"/>
<path d="M28490 7940 c0 -5 -13 -10 -30 -10 -16 0 -30 -4 -30 -10 0 -5 -9 -10
-20 -10 -11 0 -20 -4 -20 -10 0 -5 -7 -10 -15 -10 -20 0 -105 -85 -105 -105 0
-8 -4 -15 -10 -15 -5 0 -10 -9 -10 -20 0 -11 -4 -20 -10 -20 -5 0 -10 -13 -10
-29 0 -17 -4 -33 -10 -36 -6 -3 -10 -48 -10 -101 0 -56 4 -94 10 -94 6 0 10
-18 10 -40 0 -22 5 -40 10 -40 6 0 10 -7 10 -16 0 -9 14 -29 30 -44 17 -15 30
-35 30 -44 0 -9 8 -16 18 -16 10 0 24 -9 32 -20 8 -11 22 -20 32 -20 10 0 18
-4 18 -10 0 -5 14 -10 30 -10 17 0 30 -4 30 -10 0 -6 40 -10 100 -10 60 0 100
4 100 10 0 6 14 10 30 10 17 0 30 5 30 10 0 6 8 10 18 10 10 0 24 9 32 20 8
11 20 20 28 20 17 0 42 25 42 42 0 8 9 20 20 28 24 17 25 36 5 57 -14 13 -18
11 -44 -16 -16 -17 -36 -31 -45 -31 -9 0 -16 -4 -16 -10 0 -5 -9 -10 -20 -10
-11 0 -20 -4 -20 -10 0 -6 -30 -10 -70 -10 -40 0 -70 4 -70 10 0 6 -7 10 -15
10 -20 0 -85 65 -85 85 0 8 -4 15 -10 15 -6 0 -10 27 -10 60 0 33 -4 60 -10
60 -5 0 -10 5 -10 10 0 6 80 10 220 10 l220 0 0 90 c0 53 -4 90 -10 90 -5 0
-10 9 -10 20 0 11 -4 20 -10 20 -5 0 -10 7 -10 15 0 20 -85 105 -105 105 -8 0
-15 5 -15 10 0 6 -9 10 -20 10 -11 0 -20 5 -20 10 0 6 -40 10 -100 10 -60 0
-100 -4 -100 -10z m146 -64 c8 -8 14 -22 14 -30 0 -9 5 -16 10 -16 6 0 10 -40
10 -100 l0 -100 -110 0 c-103 0 -110 1 -110 20 0 11 5 20 10 20 6 0 10 30 10
70 0 40 4 70 10 70 6 0 10 7 10 15 0 9 10 27 23 40 26 28 99 34 123 11z"/>
</g>
</svg>
